<svg width="198" height="259" viewBox="0 0 198 259" fill="none" xmlns="http://www.w3.org/2000/svg">
<path d="M51 0L111.5 75.5L99.5 120.5L0 88L51 0Z" fill="#2F80ED"/>
<path d="M0 88L69 110.5L68 114L20 134.5L0 88Z" fill="#2F80ED"/>
<path d="M79.5 219.5L101 113L66 109L79.5 219.5Z" fill="#2F80ED"/>
<path d="M19.5 132.5L72 141.5L25 158.5L19.5 132.5Z" fill="#2F80ED"/>
<path d="M39 221L34.5 153L24.5 155.5L39 221Z" fill="#2F80ED"/>
<path d="M111 74L125.5 106L109.5 144.5L92 183L86 187L97 129L111 74Z" fill="#F2C94C"/>
<path d="M121.5 97L173.5 215L129 176.5L113 115.5L121.5 97Z" fill="#F2C94C"/>
<path d="M109.5 144.5L117.5 142L121 143.5L130 177.5L123.5 172L118 167L92 183L109.5 144.5Z" fill="#F2C94C"/>
<path d="M169 88.5L196 51L198 222.5L169 182.5V88.5Z" fill="#EB5757"/>
<path d="M146.5 118.5L170 154V184L135 133.5L146.5 118.5Z" fill="#EB5757"/>
<path d="M145 121L169.5 87V115.5L154 138L145 121Z" fill="#EB5757"/>
<path d="M63.4639 237.021H58.5068L57.4697 240H55.1582L59.9922 227.203H61.9873L66.8301 240H64.5098L63.4639 237.021ZM59.1309 235.228H62.8398L60.9854 229.919L59.1309 235.228ZM69.6426 230.49L69.7041 231.589C70.4072 230.739 71.3301 230.314 72.4727 230.314C74.4531 230.314 75.4609 231.448 75.4961 233.716V240H73.3604V233.839C73.3604 233.235 73.2285 232.79 72.9648 232.503C72.707 232.21 72.2822 232.063 71.6904 232.063C70.8291 232.063 70.1875 232.453 69.7656 233.232V240H67.6299V230.49H69.6426ZM79.9521 240H77.8164V230.49H79.9521V240ZM77.6846 228.021C77.6846 227.692 77.7871 227.42 77.9922 227.203C78.2031 226.986 78.502 226.878 78.8887 226.878C79.2754 226.878 79.5742 226.986 79.7852 227.203C79.9961 227.42 80.1016 227.692 80.1016 228.021C80.1016 228.343 79.9961 228.612 79.7852 228.829C79.5742 229.04 79.2754 229.146 78.8887 229.146C78.502 229.146 78.2031 229.04 77.9922 228.829C77.7871 228.612 77.6846 228.343 77.6846 228.021ZM84.2939 230.49L84.3555 231.483C85.0234 230.704 85.9375 230.314 87.0977 230.314C88.3691 230.314 89.2393 230.801 89.708 231.773C90.3994 230.801 91.3721 230.314 92.626 230.314C93.6748 230.314 94.4541 230.604 94.9639 231.185C95.4795 231.765 95.7432 232.62 95.7549 233.751V240H93.6191V233.812C93.6191 233.209 93.4873 232.767 93.2236 232.485C92.96 232.204 92.5234 232.063 91.9141 232.063C91.4277 232.063 91.0293 232.195 90.7188 232.459C90.4141 232.717 90.2002 233.057 90.0771 233.479L90.0859 240H87.9502V233.742C87.9209 232.623 87.3496 232.063 86.2363 232.063C85.3809 232.063 84.7744 232.412 84.417 233.109V240H82.2812V230.49H84.2939ZM102.136 240.176C100.782 240.176 99.6836 239.751 98.8398 238.901C98.002 238.046 97.583 236.909 97.583 235.491V235.228C97.583 234.278 97.7646 233.432 98.1279 232.688C98.4971 231.938 99.0127 231.354 99.6748 230.938C100.337 230.522 101.075 230.314 101.89 230.314C103.185 230.314 104.184 230.728 104.887 231.554C105.596 232.38 105.95 233.549 105.95 235.061V235.922H99.7363C99.8008 236.707 100.062 237.328 100.519 237.785C100.981 238.242 101.562 238.471 102.259 238.471C103.237 238.471 104.034 238.075 104.649 237.284L105.801 238.383C105.42 238.951 104.91 239.394 104.271 239.71C103.639 240.021 102.927 240.176 102.136 240.176ZM101.881 232.028C101.295 232.028 100.82 232.233 100.457 232.644C100.1 233.054 99.8711 233.625 99.7715 234.357H103.841V234.199C103.794 233.484 103.604 232.945 103.27 232.582C102.936 232.213 102.473 232.028 101.881 232.028ZM119.468 237.021H114.511L113.474 240H111.162L115.996 227.203H117.991L122.834 240H120.514L119.468 237.021ZM115.135 235.228H118.844L116.989 229.919L115.135 235.228ZM126.358 240H124.223V226.5H126.358V240ZM130.964 240H128.828V226.5H130.964V240ZM137.986 240V227.203H141.766C142.896 227.203 143.898 227.455 144.771 227.959C145.65 228.463 146.33 229.178 146.811 230.104C147.291 231.029 147.531 232.09 147.531 233.285V233.927C147.531 235.14 147.288 236.206 146.802 237.126C146.321 238.046 145.633 238.755 144.736 239.253C143.846 239.751 142.823 240 141.669 240H137.986ZM140.21 228.996V238.225H141.66C142.826 238.225 143.72 237.861 144.341 237.135C144.968 236.402 145.287 235.354 145.299 233.988V233.276C145.299 231.888 144.997 230.827 144.394 230.095C143.79 229.362 142.914 228.996 141.766 228.996H140.21ZM155.222 240C155.128 239.818 155.046 239.522 154.976 239.112C154.296 239.821 153.464 240.176 152.479 240.176C151.524 240.176 150.745 239.903 150.142 239.358C149.538 238.813 149.236 238.14 149.236 237.337C149.236 236.323 149.611 235.547 150.361 235.008C151.117 234.463 152.195 234.19 153.596 234.19H154.905V233.566C154.905 233.074 154.768 232.682 154.492 232.389C154.217 232.09 153.798 231.94 153.235 231.94C152.749 231.94 152.351 232.063 152.04 232.31C151.729 232.55 151.574 232.857 151.574 233.232H149.438C149.438 232.711 149.611 232.225 149.957 231.773C150.303 231.316 150.771 230.959 151.363 230.701C151.961 230.443 152.626 230.314 153.358 230.314C154.472 230.314 155.359 230.596 156.021 231.158C156.684 231.715 157.023 232.5 157.041 233.514V237.803C157.041 238.658 157.161 239.341 157.401 239.851V240H155.222ZM152.875 238.462C153.297 238.462 153.692 238.359 154.062 238.154C154.437 237.949 154.718 237.674 154.905 237.328V235.535H153.754C152.963 235.535 152.368 235.673 151.97 235.948C151.571 236.224 151.372 236.613 151.372 237.117C151.372 237.527 151.507 237.855 151.776 238.102C152.052 238.342 152.418 238.462 152.875 238.462ZM162.464 236.941L164.397 230.49H166.674L162.895 241.441C162.314 243.041 161.33 243.841 159.941 243.841C159.631 243.841 159.288 243.788 158.913 243.683V242.03L159.317 242.057C159.856 242.057 160.261 241.957 160.53 241.758C160.806 241.564 161.022 241.236 161.181 240.773L161.488 239.956L158.148 230.49H160.451L162.464 236.941Z" fill="black"/>
<path d="M75.7012 253.773H72.127L71.3242 256H70.1641L73.4219 247.469H74.4062L77.6699 256H76.5156L75.7012 253.773ZM72.4668 252.848H75.3672L73.9141 248.857L72.4668 252.848ZM79.6738 249.66L79.709 250.457C80.1934 249.848 80.8262 249.543 81.6074 249.543C82.9473 249.543 83.623 250.299 83.6348 251.811V256H82.5508V251.805C82.5469 251.348 82.4414 251.01 82.2344 250.791C82.0312 250.572 81.7129 250.463 81.2793 250.463C80.9277 250.463 80.6191 250.557 80.3535 250.744C80.0879 250.932 79.8809 251.178 79.7324 251.482V256H78.6484V249.66H79.6738ZM86.4473 256H85.3633V249.66H86.4473V256ZM85.2754 247.979C85.2754 247.803 85.3281 247.654 85.4336 247.533C85.543 247.412 85.7031 247.352 85.9141 247.352C86.125 247.352 86.2852 247.412 86.3945 247.533C86.5039 247.654 86.5586 247.803 86.5586 247.979C86.5586 248.154 86.5039 248.301 86.3945 248.418C86.2852 248.535 86.125 248.594 85.9141 248.594C85.7031 248.594 85.543 248.535 85.4336 248.418C85.3281 248.301 85.2754 248.154 85.2754 247.979ZM89.207 249.66L89.2363 250.363C89.7012 249.816 90.3281 249.543 91.1172 249.543C92.0039 249.543 92.6074 249.883 92.9277 250.562C93.1387 250.258 93.4121 250.012 93.748 249.824C94.0879 249.637 94.4883 249.543 94.9492 249.543C96.3398 249.543 97.0469 250.279 97.0703 251.752V256H95.9863V251.816C95.9863 251.363 95.8828 251.025 95.6758 250.803C95.4688 250.576 95.1211 250.463 94.6328 250.463C94.2305 250.463 93.8965 250.584 93.6309 250.826C93.3652 251.064 93.2109 251.387 93.168 251.793V256H92.0781V251.846C92.0781 250.924 91.627 250.463 90.7246 250.463C90.0137 250.463 89.5273 250.766 89.2656 251.371V256H88.1816V249.66H89.207ZM101.342 256.117C100.482 256.117 99.7832 255.836 99.2441 255.273C98.7051 254.707 98.4355 253.951 98.4355 253.006V252.807C98.4355 252.178 98.5547 251.617 98.793 251.125C99.0352 250.629 99.3711 250.242 99.8008 249.965C100.234 249.684 100.703 249.543 101.207 249.543C102.031 249.543 102.672 249.814 103.129 250.357C103.586 250.9 103.814 251.678 103.814 252.689V253.141H99.5195C99.5352 253.766 99.7168 254.271 100.064 254.658C100.416 255.041 100.861 255.232 101.4 255.232C101.783 255.232 102.107 255.154 102.373 254.998C102.639 254.842 102.871 254.635 103.07 254.377L103.732 254.893C103.201 255.709 102.404 256.117 101.342 256.117ZM101.207 250.434C100.77 250.434 100.402 250.594 100.105 250.914C99.8086 251.23 99.625 251.676 99.5547 252.25H102.73V252.168C102.699 251.617 102.551 251.191 102.285 250.891C102.02 250.586 101.66 250.434 101.207 250.434ZM111.965 256C111.902 255.875 111.852 255.652 111.812 255.332C111.309 255.855 110.707 256.117 110.008 256.117C109.383 256.117 108.869 255.941 108.467 255.59C108.068 255.234 107.869 254.785 107.869 254.242C107.869 253.582 108.119 253.07 108.619 252.707C109.123 252.34 109.83 252.156 110.74 252.156H111.795V251.658C111.795 251.279 111.682 250.979 111.455 250.756C111.229 250.529 110.895 250.416 110.453 250.416C110.066 250.416 109.742 250.514 109.48 250.709C109.219 250.904 109.088 251.141 109.088 251.418H107.998C107.998 251.102 108.109 250.797 108.332 250.504C108.559 250.207 108.863 249.973 109.246 249.801C109.633 249.629 110.057 249.543 110.518 249.543C111.248 249.543 111.82 249.727 112.234 250.094C112.648 250.457 112.863 250.959 112.879 251.6V254.518C112.879 255.1 112.953 255.562 113.102 255.906V256H111.965ZM110.166 255.174C110.506 255.174 110.828 255.086 111.133 254.91C111.438 254.734 111.658 254.506 111.795 254.225V252.924H110.945C109.617 252.924 108.953 253.312 108.953 254.09C108.953 254.43 109.066 254.695 109.293 254.887C109.52 255.078 109.811 255.174 110.166 255.174ZM115.604 249.66L115.639 250.457C116.123 249.848 116.756 249.543 117.537 249.543C118.877 249.543 119.553 250.299 119.564 251.811V256H118.48V251.805C118.477 251.348 118.371 251.01 118.164 250.791C117.961 250.572 117.643 250.463 117.209 250.463C116.857 250.463 116.549 250.557 116.283 250.744C116.018 250.932 115.811 251.178 115.662 251.482V256H114.578V249.66H115.604ZM120.936 252.777C120.936 251.805 121.166 251.023 121.627 250.434C122.088 249.84 122.691 249.543 123.438 249.543C124.18 249.543 124.768 249.797 125.201 250.305V247H126.285V256H125.289L125.236 255.32C124.803 255.852 124.199 256.117 123.426 256.117C122.691 256.117 122.092 255.816 121.627 255.215C121.166 254.613 120.936 253.828 120.936 252.859V252.777ZM122.02 252.9C122.02 253.619 122.168 254.182 122.465 254.588C122.762 254.994 123.172 255.197 123.695 255.197C124.383 255.197 124.885 254.889 125.201 254.271V251.359C124.877 250.762 124.379 250.463 123.707 250.463C123.176 250.463 122.762 250.668 122.465 251.078C122.168 251.488 122.02 252.096 122.02 252.9ZM133.492 255.232C133.879 255.232 134.217 255.115 134.506 254.881C134.795 254.646 134.955 254.354 134.986 254.002H136.012C135.992 254.365 135.867 254.711 135.637 255.039C135.406 255.367 135.098 255.629 134.711 255.824C134.328 256.02 133.922 256.117 133.492 256.117C132.629 256.117 131.941 255.83 131.43 255.256C130.922 254.678 130.668 253.889 130.668 252.889V252.707C130.668 252.09 130.781 251.541 131.008 251.061C131.234 250.58 131.559 250.207 131.98 249.941C132.406 249.676 132.908 249.543 133.486 249.543C134.197 249.543 134.787 249.756 135.256 250.182C135.729 250.607 135.98 251.16 136.012 251.84H134.986C134.955 251.43 134.799 251.094 134.518 250.832C134.24 250.566 133.896 250.434 133.486 250.434C132.936 250.434 132.508 250.633 132.203 251.031C131.902 251.426 131.752 251.998 131.752 252.748V252.953C131.752 253.684 131.902 254.246 132.203 254.641C132.504 255.035 132.934 255.232 133.492 255.232ZM138.314 250.428C138.795 249.838 139.42 249.543 140.189 249.543C141.529 249.543 142.205 250.299 142.217 251.811V256H141.133V251.805C141.129 251.348 141.023 251.01 140.816 250.791C140.613 250.572 140.295 250.463 139.861 250.463C139.51 250.463 139.201 250.557 138.936 250.744C138.67 250.932 138.463 251.178 138.314 251.482V256H137.23V247H138.314V250.428ZM145.018 256H143.934V249.66H145.018V256ZM143.846 247.979C143.846 247.803 143.898 247.654 144.004 247.533C144.113 247.412 144.273 247.352 144.484 247.352C144.695 247.352 144.855 247.412 144.965 247.533C145.074 247.654 145.129 247.803 145.129 247.979C145.129 248.154 145.074 248.301 144.965 248.418C144.855 248.535 144.695 248.594 144.484 248.594C144.273 248.594 144.113 248.535 144.004 248.418C143.898 248.301 143.846 248.154 143.846 247.979ZM147.936 256H146.852V247H147.936V256ZM150.854 256H149.77V247H150.854V256Z" fill="black"/>
</svg>
